<svg id="Calque_1" data-name="Calque 1" xmlns="http://www.w3.org/2000/svg" viewBox="0 0 87.63 86.63"><defs><style>.cls-1{fill:#10391e;}.cls-2{fill:#fff;}</style></defs><path class="cls-1" d="M115.37,129.28c-.28,1.82-.4,3.54-.8,5.19-2,8.25-7.51,13.26-15.27,15.93-1.28.44-3-.38-4.33-.25-4.09.41-8.18,1-12.28,1.11-1.18,0-2.4-1.34-3.61-2.06.91-.86,1.75-1.8,2.72-2.56,1.67-1.31,3.42-2.52,5.13-3.77l-.76-1.1a8,8,0,0,1-2.37.58,30.3,30.3,0,0,1-3.85-.72c.32-1.21.54-2.45,1-3.61.9-2.43,2.3-4.75,2.8-7.25,1.57-7.78,6.65-11.56,14-13.06l5.41-1.13c-.36-3.62-1.43-5.42-5.44-4.77-3.76.61-7.69.12-11.54.31-3.18.15-3.78-1.34-3.4-4.15C83.85,99.8,88.39,94.41,97,94.76c8.37.34,12.72-3.47,17.55-9.33,11.33-13.77,26.38-20.69,44.34-20.8,6.47,0,7.7,1.08,7.81,7.51.33,19.34-8.14,34.58-23,46.19-4.8,3.75-7,7.23-6.66,13.4.44,8.06-3,15.45-13.22,16.78-2.85.37-4.59,0-4.4-3.49.22-3.85-.13-7.73.22-11.55C119.9,130.49,118.7,129.41,115.37,129.28Zm38.1-62.07c-15.52.73-29.71,9.58-40.91,24.11-2.34,3-2.42,5.57-.89,8.82,4.58,9.69,12.11,16.16,21.75,20.36a4.5,4.5,0,0,0,3.68-.28c16.09-10.87,26.3-25.36,27.21-45.31C164.66,67.13,164.49,67.13,153.47,67.21ZM99.22,148.62c7.44-2.79,11.94-7.56,13.79-14.89.88-3.54.75-6.44-2.69-8.75-1.8-1.21-3-3.26-4.57-4.87a4.71,4.71,0,0,0-2-1.45c-5.31-1.24-15,3.51-17,8.48-1.74,4.33-3.12,8.79-4.86,13.78a33.28,33.28,0,0,1,3.24-1c.76-.14,2-.34,2.28,0,.58.8,1.23,2.28.87,2.92A18.73,18.73,0,0,1,84.72,147a17.49,17.49,0,0,1-2.82,1.83l.45,1.49c3.17-.53,6.67-.4,9.42-1.77s4.77-4.27,7.11-6.5l1,.46Zm32.95-25.8c-10.83-5.15-19.25-12.64-23.85-24.12-6.16,9.39-5.27,16.21,2.83,24C117.55,128.87,123.47,129,132.17,122.82Zm-9.89,23c10.48.65,14-9.23,11.72-20.46-3.42,1.41-6.85,2.77-10.22,4.28a2.66,2.66,0,0,0-1.44,1.82C122.22,136.22,122.28,141,122.28,145.8ZM105.62,97.22c-11.44-1.92-21.09,2.09-20.15,12.15H100.7Z" transform="translate(-79.08 -64.63)"/><path class="cls-2" d="M153.47,67.21c11-.08,11.19-.08,10.84,7.7-.91,20-11.12,34.44-27.21,45.31a4.5,4.5,0,0,1-3.68.28c-9.64-4.2-17.17-10.67-21.75-20.36-1.53-3.25-1.45-5.79.89-8.82C123.76,76.79,138,67.94,153.47,67.21ZM139.78,77a14.68,14.68,0,0,0-15.09,14.62,15,15,0,1,0,30.05.16A14.74,14.74,0,0,0,139.78,77Z" transform="translate(-79.08 -64.63)"/><path class="cls-2" d="M132.17,122.82c-8.7,6.13-14.62,6.05-21-.11-8.1-7.8-9-14.62-2.83-24C112.92,110.18,121.34,117.67,132.17,122.82Z" transform="translate(-79.08 -64.63)"/><path class="cls-2" d="M122.28,145.8c0-4.79-.06-9.58.06-14.36a2.66,2.66,0,0,1,1.44-1.82c3.37-1.51,6.8-2.87,10.22-4.28C136.32,136.57,132.76,146.45,122.28,145.8Z" transform="translate(-79.08 -64.63)"/><path class="cls-2" d="M105.62,97.22l-4.92,12.15H85.47C84.53,99.31,94.18,95.3,105.62,97.22Z" transform="translate(-79.08 -64.63)"/><path class="cls-1" d="M139.78,77a14.74,14.74,0,0,1,15,14.78,15,15,0,1,1-30.05-.16A14.68,14.68,0,0,1,139.78,77Zm12.6,15a12.69,12.69,0,1,0-12.66,12.49A12.72,12.72,0,0,0,152.38,92Z" transform="translate(-79.08 -64.63)"/><path class="cls-2" d="M152.38,92A12.69,12.69,0,0,1,127,92a12.69,12.69,0,0,1,25.38,0Zm-12.46,7.41a7.72,7.72,0,0,0,7.62-7.5,8.3,8.3,0,0,0-8-7.76,7.59,7.59,0,0,0-7.39,8.08C132.32,96.55,135.44,99.44,139.92,99.37Z" transform="translate(-79.08 -64.63)"/><path class="cls-1" d="M139.92,99.37c-4.48.07-7.6-2.82-7.73-7.18a7.59,7.59,0,0,1,7.39-8.08,8.3,8.3,0,0,1,8,7.76A7.72,7.72,0,0,1,139.92,99.37Zm-.37-13.47A6.2,6.2,0,0,0,133.77,92a5.83,5.83,0,0,0,6.12,5.67,6.1,6.1,0,0,0,5.86-6A6.5,6.5,0,0,0,139.55,85.9Z" transform="translate(-79.08 -64.63)"/><path class="cls-2" d="M139.55,85.9a6.5,6.5,0,0,1,6.2,5.8,6.1,6.1,0,0,1-5.86,6A5.83,5.83,0,0,1,133.77,92,6.2,6.2,0,0,1,139.55,85.9Z" transform="translate(-79.08 -64.63)"/></svg>