<svg id="Calque_1" data-name="Calque 1" xmlns="http://www.w3.org/2000/svg" viewBox="0 0 93.51 94.51"><defs><style>.cls-1{fill:#10391e;}.cls-2{fill:#fff;}</style></defs><path class="cls-1" d="M119.91,71.61c0-4.86.09-9,0-13-.06-2.39.94-3.43,3.26-3.43q17.55,0,35.1,0c2.43,0,3.31,1.33,3.32,3.5,0,7.09,0,14.18,0,21.27,0,3-1.47,4.27-4.41,4.13-1.84-.09-3.68,0-5,0l-2.42,6.51c-1.94-1.14-4.29-1.9-5.74-3.48-3.42-3.72-7.52-3.1-12-2.82V99.43h12.34c6.22,0,12.45,0,18.67,0,2.74,0,4.06,1.16,4,4.06-.07,10.82-.09,21.65,0,32.47,0,2.93-1.27,4.06-4,4-3.32,0-6.64,0-10.31,0,0,2.67.14,4.65,0,6.61-.25,3-2.21,3.85-4.64,2.13a25.42,25.42,0,0,1-4.26-3.62c-3.79-4.23-8.42-5.61-14-5.19-5.2.39-10.45.12-15.68.06-4,0-5.09-1.05-5.14-5.08-.07-6.1,0-12.19,0-18.29v-4a9.28,9.28,0,0,0-9.26,2.27c-2.2,2-4.42,4-6.79,5.83-.88.66-2.42,1.31-3.23,1s-1.52-1.87-1.69-3a49.78,49.78,0,0,1-.07-6.51c-3.37,0-6.52-.13-9.66,0-3.31.17-4.72-1-4.67-4.52.15-10.44.17-20.9,0-31.34-.07-3.73,1.62-4.78,4.93-4.77,12.2,0,24.39,0,36.59,0Zm44.59,66a9.2,9.2,0,0,0,.42-1.77c0-10.45,0-20.89.07-31.34,0-2.85-1.76-2.77-3.73-2.77-15.42,0-30.85,0-46.28,0-2.54,0-3.53.74-3.5,3.39.11,10,0,19.89.06,29.84a19.45,19.45,0,0,0,.46,2.69c7,0,13.84.15,20.66-.05a14,14,0,0,1,10.8,4c1.92,1.86,4.07,3.48,6.62,5.62.12-1.64.24-2.58.26-3.53.13-5.36.71-6,6-6.07C159.05,137.58,161.75,137.61,164.5,137.61ZM108.74,110c.08-1.72.17-2.82.19-3.91.07-5.9.83-6.69,6.62-6.7H129.1c0-8,0-15.45,0-22.89,0-2.34-1.29-2.55-3.12-2.55-15.66,0-31.33.07-47,0-2.65,0-3.44.9-3.4,3.45.12,8,0,15.9,0,23.86,0,8.48,0,8.48,8.53,8.62,5.53.09,6,.52,6.11,5.93,0,1,.15,1.89.28,3.34C96.5,115.39,100.24,108.33,108.74,110Zm28.72-38.82-.74-.82c-.49,0-1,0-1.46,0-3,.26-5.14-.88-5.59-4.06-.41-2.92,1-5,3.82-5.47,3.15-.51,5.13,1.24,6,4.31,1.56,5.62-.74,10.57-5.83,12.92-1,.44-1.52,1.72-2.26,2.61l.54,1.06c6.56-1.28,12.05.56,16.66,6-.93-9.94,6.69-4.51,10.39-6.84,0-7.16.06-14.6-.12-22,0-.61-1.66-1.68-2.56-1.69-10.7-.1-21.41-.06-32.11,0a6.65,6.65,0,0,0-1.75.51V71.05c7.87,1.73,7.87,1.73,10.68,5.14Zm-3-2.22c1.24-1.41,2.72-2.66,2.54-3a6.44,6.44,0,0,0-2.83-2.61c-.31-.14-2.07,1.51-2,2.28C132.15,66.65,133.36,67.57,134.43,69Z" transform="translate(-73.55 -55.11)"/><path class="cls-2" d="M164.5,137.61c-2.75,0-5.45,0-8.15,0-5.3.09-5.88.71-6,6.07,0,.95-.14,1.89-.26,3.53-2.55-2.14-4.7-3.76-6.62-5.62a14,14,0,0,0-10.8-4c-6.82.2-13.65.05-20.66.05a19.45,19.45,0,0,1-.46-2.69c0-9.95,0-19.89-.06-29.84,0-2.65,1-3.4,3.5-3.39,15.43.09,30.86,0,46.28,0,2,0,3.76-.08,3.73,2.77-.07,10.45,0,20.89-.07,31.34A9.2,9.2,0,0,1,164.5,137.61Zm-33.92-7.9a8.19,8.19,0,0,0,.55-1.69c-4-2.78-8-5.52-12.17-8.39,3.7-3.55,9.28-4.5,11.85-9.23a73.83,73.83,0,0,0-13.57,7.41c-.6.41-.57,3.32.07,3.76C121.54,124.45,126,127,130.58,129.71Zm28.8-10.05c-4.2,2.48-7.75,4.51-11.22,6.68-.68.43-1,1.43-1.48,2.17.84,0,1.84.3,2.49,0,3.38-1.85,6.72-3.78,10-5.85,3-1.89,2.94-4.09-.09-6s-6.39-3.86-9.65-5.66a7.69,7.69,0,0,0-2.59-.38c.47.83.74,2,1.44,2.42C151.68,115.19,155.23,117.2,159.38,119.66Zm-25.73,14.39c.75-1.39,1.33-2.32,1.78-3.32,3.3-7.36,6.59-14.73,9.79-22.14.24-.55-.25-1.43-.46-2.46C140.86,110.13,132.07,131.54,133.65,134.05Z" transform="translate(-73.55 -55.11)"/><path class="cls-2" d="M108.74,110c-8.5-1.71-12.24,5.35-18.17,9.12-.13-1.45-.25-2.39-.28-3.34-.15-5.41-.58-5.84-6.11-5.93-8.53-.14-8.53-.14-8.53-8.62,0-8,.08-15.91,0-23.86,0-2.55.75-3.47,3.4-3.45,15.66.1,31.33.06,47,0,1.83,0,3.14.21,3.12,2.55-.07,7.44,0,14.88,0,22.89H115.55c-5.79,0-6.55.8-6.62,6.7C108.91,107.22,108.82,108.32,108.74,110ZM95.31,91.84c3.85,0,5.6,1.72,5.58,5.37,0,2.8,1.55,4.68,4.18,4.79s4.16-1.66,4.23-4.56c.1-4,6.57-10.31,10.56-10.49,2.75-.13,4.46-1.51,4.36-4.44-.08-2.57-1.61-3.84-4.1-3.81-2.93,0-4,1.82-4.32,4.54a7.52,7.52,0,0,1-1.33,3.8c-1.55,1.92-3.22,4-5.31,5.16a10.05,10.05,0,0,1-6.48,1.17c-2.05-.44-3.6-2.34-3.26-5.12a4,4,0,0,0-4.14-4.72c-2.63-.09-4.17,1.72-4.25,4.61a7,7,0,0,1-7.15,7.07c-3,.09-4.73,1.91-4.42,4.35.19,1.51,2.39,3.58,4,3.91,2.78.56,4.08-1.57,4.21-4.36A7.81,7.81,0,0,1,95.31,91.84Z" transform="translate(-73.55 -55.11)"/><path class="cls-2" d="M137.46,71.22l-4.35,5c-2.81-3.41-2.81-3.41-10.68-5.14V57.69a6.65,6.65,0,0,1,1.75-.51c10.7,0,21.41-.08,32.11,0,.9,0,2.55,1.08,2.56,1.69.18,7.42.12,14.86.12,22-3.7,2.33-11.32-3.1-10.39,6.84-4.61-5.41-10.1-7.25-16.66-6l-.54-1.06c.74-.89,1.3-2.17,2.26-2.61,5.09-2.35,7.39-7.3,5.83-12.92-.85-3.07-2.83-4.82-6-4.31-2.84.46-4.23,2.55-3.82,5.47.45,3.18,2.55,4.32,5.59,4.06.49,0,1,0,1.46,0Zm4,4.74v1.45c1.28.3,2.61,1,3.85.84A7.43,7.43,0,0,0,152,72.66c1.11-3.54,1.67-7.33-1.18-10.14a6,6,0,0,0-5.54-1,5.9,5.9,0,0,0-2.55,5c.27,1.5,2.56,2.79,4.17,3.86.65.44,1.85.08,2.92.08C149.29,75.7,145.34,75.78,141.47,76Z" transform="translate(-73.55 -55.11)"/><path class="cls-2" d="M134.43,69c-1.07-1.43-2.28-2.35-2.32-3.32,0-.77,1.72-2.42,2-2.28A6.44,6.44,0,0,1,137,66C137.15,66.34,135.67,67.59,134.43,69Z" transform="translate(-73.55 -55.11)"/><path class="cls-1" d="M130.58,129.71c-4.57-2.75-9-5.26-13.27-8.14-.64-.44-.67-3.35-.07-3.76a73.83,73.83,0,0,1,13.57-7.41c-2.57,4.73-8.15,5.68-11.85,9.23,4.19,2.87,8.2,5.61,12.17,8.39A8.19,8.19,0,0,1,130.58,129.71Z" transform="translate(-73.55 -55.11)"/><path class="cls-1" d="M159.38,119.66c-4.15-2.46-7.7-4.47-11.13-6.67-.7-.45-1-1.59-1.44-2.42a7.69,7.69,0,0,1,2.59.38c3.26,1.8,6.49,3.67,9.65,5.66s3.07,4.11.09,6c-3.25,2.07-6.59,4-10,5.85-.65.35-1.65,0-2.49,0,.48-.74.8-1.74,1.48-2.17C151.63,124.17,155.18,122.14,159.38,119.66Z" transform="translate(-73.55 -55.11)"/><path class="cls-1" d="M133.65,134.05c-1.58-2.51,7.21-23.92,11.11-27.92.21,1,.7,1.91.46,2.46-3.2,7.41-6.49,14.78-9.79,22.14C135,131.73,134.4,132.66,133.65,134.05Z" transform="translate(-73.55 -55.11)"/><path class="cls-1" d="M95.31,91.84a7.81,7.81,0,0,0-7.64,7.27c-.13,2.79-1.43,4.92-4.21,4.36-1.61-.33-3.81-2.4-4-3.91-.31-2.44,1.46-4.26,4.42-4.35A7,7,0,0,0,91,88.14c.08-2.89,1.62-4.7,4.25-4.61a4,4,0,0,1,4.14,4.72c-.34,2.78,1.21,4.68,3.26,5.12a10.05,10.05,0,0,0,6.48-1.17C111.25,91,112.92,89,114.47,87a7.52,7.52,0,0,0,1.33-3.8c.28-2.72,1.39-4.51,4.32-4.54,2.49,0,4,1.24,4.1,3.81.1,2.93-1.61,4.31-4.36,4.44-4,.18-10.46,6.44-10.56,10.49-.07,2.9-1.53,4.67-4.23,4.56s-4.19-2-4.18-4.79C100.91,93.56,99.16,91.84,95.31,91.84Zm-8,7.9c-1.83-1.36-2.85-2.7-3.7-2.59a3.88,3.88,0,0,0-2.46,2.42c-.16.49,1.32,2.11,2.16,2.19S85.37,100.81,87.35,99.74Zm33.12-20.88c-1.42,1.87-2.8,2.91-2.69,3.75s1.56,1.82,2.42,2.71c.8-.78,2.14-1.51,2.23-2.37S121.51,80.89,120.47,78.86ZM95.3,84.15C94.16,85.81,93,86.78,93,87.79c0,.77,1.62,2.37,2.14,2.22a4,4,0,0,0,2.48-2.4C97.74,86.89,96.46,85.82,95.3,84.15Zm13.18,13.48c-1.45-1-2.47-2.28-3.18-2.12-1,.21-1.79,1.48-2.66,2.29.92.83,1.74,2.1,2.8,2.34C106.08,100.29,107.08,98.84,108.48,97.63Z" transform="translate(-73.55 -55.11)"/><path class="cls-1" d="M141.47,76c3.87-.18,7.82-.26,8.38-5.51-1.07,0-2.27.36-2.92-.08-1.61-1.07-3.9-2.36-4.17-3.86a5.9,5.9,0,0,1,2.55-5,6,6,0,0,1,5.54,1c2.85,2.81,2.29,6.6,1.18,10.14a7.43,7.43,0,0,1-6.72,5.59c-1.24.12-2.57-.54-3.85-.84Zm9.71-9.88c-1.76-1.36-2.73-2.67-3.67-2.66s-2.15,1.32-2.45,2.3c-.16.53,1.27,2.14,2.1,2.23C148.14,68.06,149.25,67.05,151.18,66.08Z" transform="translate(-73.55 -55.11)"/><path class="cls-2" d="M87.35,99.74c-2,1.07-3,2.12-4,2s-2.32-1.7-2.16-2.19a3.88,3.88,0,0,1,2.46-2.42C84.5,97,85.52,98.38,87.35,99.74Z" transform="translate(-73.55 -55.11)"/><path class="cls-2" d="M120.47,78.86c1,2,2.07,3.12,2,4.09s-1.43,1.59-2.23,2.37c-.86-.89-2.28-1.72-2.42-2.71S119.05,80.73,120.47,78.86Z" transform="translate(-73.55 -55.11)"/><path class="cls-2" d="M95.3,84.15c1.16,1.67,2.44,2.74,2.27,3.46A4,4,0,0,1,95.09,90c-.52.15-2.16-1.45-2.14-2.22C93,86.78,94.16,85.81,95.3,84.15Z" transform="translate(-73.55 -55.11)"/><path class="cls-2" d="M108.48,97.63c-1.4,1.21-2.4,2.66-3,2.51-1.06-.24-1.88-1.51-2.8-2.34.87-.81,1.65-2.08,2.66-2.29C106,95.35,107,96.6,108.48,97.63Z" transform="translate(-73.55 -55.11)"/><path class="cls-2" d="M151.18,66.08c-1.93,1-3,2-4,1.87-.83-.09-2.26-1.7-2.1-2.23.3-1,1.57-2.29,2.45-2.3S149.42,64.72,151.18,66.08Z" transform="translate(-73.55 -55.11)"/></svg>